<svg xmlns="http://www.w3.org/2000/svg" xmlns:xlink="http://www.w3.org/1999/xlink" width="170.527" height="77.145" viewBox="0 0 170.527 77.145">
  <defs>
    <clipPath id="clip-path">
      <rect id="Rectangle_4" data-name="Rectangle 4" width="170.527" height="77.145" fill="none"/>
    </clipPath>
  </defs>
  <g id="logo" transform="translate(0 0)">
    <path id="Path_1" data-name="Path 1" d="M63.722,38.976v3.549h6.835v4.048H63.722v6.756H59.517v-18.4H70.689v4.048Z" transform="translate(-8.329 -4.888)"/>
    <g id="Group_2" data-name="Group 2" transform="translate(0 0)">
      <g id="Group_1" data-name="Group 1" clip-path="url(#clip-path)">
        <path id="Path_2" data-name="Path 2" d="M87.66,41.041V54.184H83.717V52.948a4.494,4.494,0,0,1-3.758,1.6c-2.655,0-4.916-1.893-4.916-5.442v-8.07h3.943v7.492a2.167,2.167,0,0,0,2.287,2.392c1.446,0,2.444-.841,2.444-2.707V41.041Z" transform="translate(-10.502 -5.743)"/>
        <path id="Path_3" data-name="Path 3" d="M97.9,44.227V48.88c0,1.13.973,1.236,2.707,1.13v3.575c-5.153.525-6.651-1.025-6.651-4.705V44.227h-2.1V40.442h2.1v-2.5L97.9,36.762v3.68h2.707v3.785Z" transform="translate(-12.854 -5.145)"/>
        <path id="Path_4" data-name="Path 4" d="M117.337,41.041V54.184h-3.943V52.948a4.494,4.494,0,0,1-3.758,1.6c-2.655,0-4.915-1.893-4.915-5.442v-8.07h3.942v7.492a2.167,2.167,0,0,0,2.287,2.392c1.446,0,2.444-.841,2.444-2.707V41.041Z" transform="translate(-14.655 -5.743)"/>
        <path id="Path_5" data-name="Path 5" d="M130.638,40.736V45.2c-1.63-.263-3.943.394-3.943,3v5.94h-3.943V41H126.7v2.339a3.947,3.947,0,0,1,3.943-2.6" transform="translate(-17.178 -5.701)"/>
        <path id="Path_6" data-name="Path 6" d="M142.59,46.186h0a2.961,2.961,0,0,0-5.651,0Zm-2.418,4.784a3.433,3.433,0,0,0,2.523-1l3.155,1.813a6.67,6.67,0,0,1-5.731,2.708c-4.5,0-7.281-3.023-7.281-6.941a6.739,6.739,0,0,1,6.992-6.94,6.636,6.636,0,0,1,6.677,6.94,7.653,7.653,0,0,1-.157,1.577h-9.332a2.99,2.99,0,0,0,3.154,1.841" transform="translate(-18.59 -5.684)"/>
        <path id="Path_7" data-name="Path 7" d="M163.946,46.055v8.07H160V46.633a2.167,2.167,0,0,0-2.287-2.392c-1.446,0-2.444.841-2.444,2.707v7.176h-3.943V40.981h3.943v1.236a4.492,4.492,0,0,1,3.758-1.6c2.655,0,4.916,1.893,4.916,5.442" transform="translate(-21.177 -5.684)"/>
        <path id="Path_8" data-name="Path 8" d="M179.2,50.182c0,3.023-2.628,4.311-5.467,4.311-2.628,0-4.626-1-5.651-3.128l3.417-1.945a2.158,2.158,0,0,0,2.234,1.552c.946,0,1.419-.289,1.419-.815,0-1.446-6.466-.683-6.466-5.231,0-2.865,2.418-4.311,5.152-4.311a5.75,5.75,0,0,1,5.126,2.813L175.6,45.24a1.908,1.908,0,0,0-1.761-1.157c-.684,0-1.1.262-1.1.736,0,1.5,6.466.5,6.466,5.362" transform="translate(-23.521 -5.684)"/>
        <path id="Path_9" data-name="Path 9" d="M192.133,46.186h0a2.961,2.961,0,0,0-5.651,0Zm-2.418,4.784a3.433,3.433,0,0,0,2.523-1l3.155,1.813a6.67,6.67,0,0,1-5.731,2.708c-4.5,0-7.281-3.023-7.281-6.941a6.739,6.739,0,0,1,6.991-6.94,6.637,6.637,0,0,1,6.677,6.94,7.653,7.653,0,0,1-.157,1.577H186.56a2.991,2.991,0,0,0,3.155,1.841" transform="translate(-25.523 -5.684)"/>
        <path id="Path_10" data-name="Path 10" d="M25.23,79.407h0a1.961,1.961,0,1,1,1.962-1.96,1.964,1.964,0,0,1-1.962,1.96M23.267,49.115h0a1.962,1.962,0,1,1,1.963,1.963,1.965,1.965,0,0,1-1.963-1.963M27.133,72V54.557a5.767,5.767,0,1,0-3.8,0h0V72h0a5.765,5.765,0,1,0,3.8,0" transform="translate(-2.724 -6.066)"/>
        <path id="Path_11" data-name="Path 11" d="M39.247,61.811h0a1.961,1.961,0,1,1,1.96-1.963,1.965,1.965,0,0,1-1.96,1.963M22.505,20.6h0a8.4,8.4,0,1,1,8.4-8.4,8.409,8.409,0,0,1-8.4,8.4M7.726,59.849h0a1.961,1.961,0,1,1-1.96-1.96,1.965,1.965,0,0,1,1.96,1.96m33.423-5.44V32.744A12.16,12.16,0,0,0,31.163,20.8a12.2,12.2,0,1,0-17.314,0A12.16,12.16,0,0,0,3.864,32.744V54.409a5.764,5.764,0,1,0,3.8,0V32.744A8.346,8.346,0,0,1,16,24.408h13a8.346,8.346,0,0,1,8.337,8.337V54.409a5.764,5.764,0,1,0,3.8,0" transform="translate(0 0)"/>
      </g>
    </g>
  </g>
</svg>
